<svg id="Capa_1" enable-background="new 0 0 512 512" viewBox="0 0 512 512" xmlns="http://www.w3.org/2000/svg"><g><g><g><circle cx="256" cy="256" fill="#ffd15b" r="256"/></g><g><path d="m412.415 53.347c33.438 43.259 53.347 97.508 53.347 156.415 0 141.385-114.615 256-256 256-58.906 0-113.155-19.908-156.415-53.347 46.819 60.57 120.174 99.585 202.653 99.585 141.385 0 256-114.615 256-256 0-82.479-39.015-155.834-99.585-202.653z" fill="#ffc344"/></g><g><path d="m339.032 379.42c0 45.857-37.175 49.992-83.032 49.992s-83.032-4.135-83.032-49.992 37.175-83.032 83.032-83.032 83.032 37.174 83.032 83.032z" fill="#f37c7c"/></g></g><g><g><g><path d="m166.581 235.224c-21.691 0-39.338-17.647-39.338-39.339 0-18.18 14.791-32.971 32.971-32.971 4.142 0 7.5 3.357 7.5 7.5s-3.358 7.5-7.5 7.5c-9.909 0-17.971 8.062-17.971 17.971 0 13.421 10.918 24.339 24.338 24.339 17.809 0 32.298-14.489 32.298-32.299 0-23.295-18.952-42.247-42.247-42.247-30.153 0-54.685 24.531-54.685 54.685 0 4.143-3.358 7.5-7.5 7.5s-7.5-3.357-7.5-7.5c0-38.424 31.26-69.685 69.685-69.685 31.566 0 57.247 25.681 57.247 57.247 0 26.081-21.218 47.299-47.298 47.299z" fill="#f6ab31"/></g><g><path d="m370.719 241.077c-15.291 0-29.667-5.954-40.48-16.767-27.169-27.17-27.169-71.379 0-98.549 2.929-2.93 7.678-2.929 10.606-.001 2.929 2.929 2.929 7.678 0 10.606-21.321 21.322-21.321 56.016 0 77.336 7.979 7.979 18.589 12.374 29.874 12.374s21.894-4.394 29.874-12.374c12.593-12.593 12.593-33.083 0-45.676-9.49-9.489-24.93-9.491-34.42 0-7.006 7.007-7.006 18.407 0 25.415 2.929 2.929 2.929 7.678 0 10.606s-7.678 2.929-10.606-.001c-12.855-12.854-12.855-33.772 0-46.627 15.338-15.338 40.295-15.339 55.633-.001 18.442 18.442 18.442 48.448 0 66.891-10.813 10.814-25.189 16.768-40.481 16.768z" fill="#f6ab31"/></g></g></g></g><g/><g/><g/><g/><g/><g/><g/><g/><g/><g/><g/><g/><g/><g/><g/></svg>